<svg width="140" height="140" viewBox="0 0 140 140" fill="none" xmlns="http://www.w3.org/2000/svg">
<path d="M109 80.1172L81.609 52.481V44.9881C81.609 37.3412 87.7397 31.1439 95.3045 31.1439C102.869 31.1439 109 37.3412 109 44.9881L109 80.1172Z" fill="#F89820"/>
<path d="M30.9996 59.9095L58.3906 87.5457L58.3906 95.0386C58.3906 102.686 52.2599 108.883 44.6951 108.883C37.1303 108.883 30.9996 102.686 30.9996 95.0386L30.9996 59.9095Z" fill="#F89820"/>
<path d="M35.3947 35.0456C40.7309 29.6515 49.3814 29.6515 54.7148 35.0456L104.553 85.4245C109.889 90.8186 109.889 99.5631 104.553 104.954C99.2164 110.349 90.5659 110.349 85.2324 104.954L35.3947 54.5755C30.0585 49.1841 30.0585 40.4397 35.3947 35.0456Z" fill="#F89820"/>
</svg>
