<svg width="26" height="26" viewBox="0 0 26 26" fill="none" xmlns="http://www.w3.org/2000/svg">
<g clip-path="url(#clip0_127_1580)">
<mask id="mask0_127_1580" style="mask-type:luminance" maskUnits="userSpaceOnUse" x="0" y="4" width="26" height="18">
<path d="M21.8986 7.1332L24.7109 10.5474C24.7109 10.5474 23.6704 14.465 20.7736 17.2577C15.2108 22.6198 7.08641 19.1156 3.89944 16.6952C0.886274 14.2372 2.3712 13.6961 3.33697 13.8829L6.14933 14.4454C1.05052 6.40143 2.45107 5.54253 3.89944 6.00826L8.9617 8.25815C12.2066 10.0451 13.7427 9.10186 14.5864 8.25815L16.2738 6.57073C18.805 4.32084 21.3192 6.48074 21.8986 7.1332Z" fill="white" stroke="white" stroke-width="2.36438" stroke-linecap="round" stroke-linejoin="round"/>
<path d="M19.087 11.6325C18.4657 11.6325 17.962 11.1288 17.962 10.5075C17.962 9.88622 18.4657 9.38257 19.087 9.38257C19.7083 9.38257 20.2119 9.88622 20.2119 10.5075C20.2119 11.1288 19.7083 11.6325 19.087 11.6325Z" fill="black"/>
</mask>
<g mask="url(#mask0_127_1580)">
<path d="M26.9565 -0.741211L-0.0421549 -0.74121L-0.0421541 26.2575L26.9565 26.2575L26.9565 -0.741211Z" fill="#FF9900"/>
</g>
</g>
<defs>
<clipPath id="clip0_127_1580">
<rect width="26" height="26" fill="white" transform="matrix(1 0 0 -1 0 26)"/>
</clipPath>
</defs>
</svg>
