<svg width="19" height="18" viewBox="0 0 19 18" fill="none" xmlns="http://www.w3.org/2000/svg">
<g clip-path="url(#clip0_275_28)">
<mask id="mask0_275_28" style="mask-type:luminance" maskUnits="userSpaceOnUse" x="0" y="2" width="19" height="13">
<path d="M15.7985 4.70589L17.8359 7.11933C17.8359 7.11933 17.0821 9.88863 14.9835 11.8627C10.9534 15.6531 5.06765 13.176 2.75882 11.4651C0.575894 9.7276 1.65167 9.34511 2.35133 9.47711L4.38878 9.87471C0.694881 4.18862 1.70953 3.58148 2.75882 3.91069L6.42622 5.5011C8.77703 6.76428 9.88989 6.0975 10.5011 5.5011L11.7236 4.30829C13.5573 2.71789 15.3788 4.24468 15.7985 4.70589Z" fill="white" stroke="white" stroke-width="1.60746" stroke-linecap="round" stroke-linejoin="round"/>
<path d="M13.7583 7.88484C13.3082 7.88484 12.9433 7.52881 12.9433 7.08964C12.9433 6.65046 13.3082 6.29443 13.7583 6.29443C14.2084 6.29443 14.5732 6.65046 14.5732 7.08964C14.5732 7.52881 14.2084 7.88484 13.7583 7.88484Z" fill="black"/>
</mask>
<g mask="url(#mask0_275_28)">
<path d="M18.7148 -0.126221L0.654127 -0.12622L0.654128 17.4962L18.7148 17.4962L18.7148 -0.126221Z" fill="#FF9900"/>
</g>
</g>
<defs>
<clipPath id="clip0_275_28">
<rect width="17.9845" height="17.5481" fill="white" transform="matrix(1 0 0 -1 0.666016 17.5481)"/>
</clipPath>
</defs>
</svg>
