<svg width="30" height="30" viewBox="0 0 30 30" fill="none" xmlns="http://www.w3.org/2000/svg">
<path d="M24.5984 5.60352H6.19844C4.93344 5.60352 3.90994 6.63852 3.90994 7.90352L3.89844 21.7035C3.89844 22.9685 4.93344 24.0035 6.19844 24.0035H24.5984C25.8634 24.0035 26.8984 22.9685 26.8984 21.7035V7.90352C26.8984 6.63852 25.8634 5.60352 24.5984 5.60352ZM24.1384 10.491L16.0079 15.574C15.6399 15.804 15.1569 15.804 14.7889 15.574L6.65844 10.491C6.54312 10.4263 6.44214 10.3388 6.36161 10.2339C6.28107 10.129 6.22266 10.0089 6.1899 9.88079C6.15714 9.75267 6.15072 9.61924 6.17102 9.48857C6.19132 9.3579 6.23792 9.2327 6.30801 9.12056C6.3781 9.00842 6.47021 8.91167 6.57877 8.83616C6.68734 8.76065 6.81009 8.70795 6.93961 8.68126C7.06913 8.65456 7.20271 8.65443 7.33229 8.68086C7.46186 8.70728 7.58472 8.75973 7.69344 8.83502L15.3984 13.6535L23.1034 8.83502C23.2122 8.75973 23.335 8.70728 23.4646 8.68086C23.5942 8.65443 23.7278 8.65456 23.8573 8.68126C23.9868 8.70795 24.1095 8.76065 24.2181 8.83616C24.3267 8.91167 24.4188 9.00842 24.4889 9.12056C24.559 9.2327 24.6056 9.3579 24.6259 9.48857C24.6462 9.61924 24.6397 9.75267 24.607 9.88079C24.5742 10.0089 24.5158 10.129 24.4353 10.2339C24.3547 10.3388 24.2538 10.4263 24.1384 10.491Z" fill="#FF9900"/>
</svg>
