<svg width="276" height="276" viewBox="0 0 276 276" fill="none" xmlns="http://www.w3.org/2000/svg">
<circle cx="138" cy="138" r="138" fill="#1B2635"/>
<path d="M61 118.397L115.431 173.315V188.205C115.431 203.401 103.248 215.716 88.2154 215.716C73.1829 215.716 61 203.401 61 188.205L61 118.397Z" fill="#F89820"/>
<path d="M216.001 158.548L161.57 103.63V88.7407C161.57 73.5449 173.753 61.2297 188.786 61.2297C203.818 61.2297 216.001 73.5449 216.001 88.7407V158.548Z" fill="#F89820"/>
<path d="M207.265 207.961C196.661 218.68 179.471 218.68 168.872 207.961L69.8357 107.849C59.2318 97.1297 59.2318 79.7529 69.8357 69.0393C80.4397 58.3202 97.6298 58.3202 108.228 69.0393L207.265 169.151C217.869 179.865 217.869 197.242 207.265 207.961Z" fill="#F89820"/>
</svg>
