<?xml version="1.0" encoding="utf-8"?>
<!-- Generator: Adobe Illustrator 25.4.1, SVG Export Plug-In . SVG Version: 6.00 Build 0)  -->
<svg version="1.1" id="Layer_1" xmlns="http://www.w3.org/2000/svg" xmlns:xlink="http://www.w3.org/1999/xlink" x="0px" y="0px"
	 viewBox="0 0 29 29" style="enable-background:new 0 0 29 29;" xml:space="preserve">
<style type="text/css">
	.st0{fill:#FF9900;}
</style>
<g>
	<path class="st0" d="M17.1,14.2c-0.1,0-0.1,0-0.1-0.1c-0.7-0.3-1.4-0.5-2-0.8c-0.8-0.3-1.5-0.6-2.2-1c-0.5-0.2-0.9-0.5-1.3-0.8
		c-0.3-0.2-0.5-0.4-0.7-0.6c-0.1-0.1-0.1-0.2-0.1-0.3c-0.1-0.2,0-0.4,0.1-0.5c0.2-0.2,0.4-0.3,0.6-0.3c0.9-0.2,1.9-0.5,2.8-0.7
		c0.5-0.1,1-0.3,1.6-0.4c0.2-0.1,0.5-0.1,0.7-0.1c0.5-0.1,1-0.3,1.5-0.5c0.5-0.2,0.9-0.6,1.1-1c0.2-0.4,0.4-0.7,0.4-1.2
		c0.1-0.5,0.1-1,0.2-1.4c0-0.3,0.1-0.5,0.1-0.8c0.1-0.5,0.3-1,0.6-1.4c0.3-0.4,0.7-0.7,1.2-0.9c0.3-0.1,0.7-0.2,1.1-0.2
		c0.3,0,0.5,0,0.8,0c0.2,0,0.5,0.1,0.7,0.1c0.8,0.2,1.6,0.4,2.5,0.5C26.8,1.9,27,1.9,27.3,2c0.1,0,0.1,0.1,0.1,0.1
		c0.2,0.6,0.4,1.2,0.6,1.8c0.1,0.5,0.2,1,0.3,1.4c0,0.3,0.1,0.5,0.1,0.8c0,0.3,0,0.5,0,0.8c0,0.3,0,0.6,0,0.8c0,0.2,0,0.4,0,0.5
		c0,0.4-0.1,0.9-0.3,1.3c-0.3,1.1-0.8,2-1.5,2.9c-0.6,0.7-1.3,1.4-2.1,1.9c-1.1,0.8-2.3,1.3-3.5,1.7c-0.7,0.2-1.5,0.4-2.3,0.5
		c-0.3,0-0.6,0.1-0.9,0.1c-0.5,0.1-0.9,0.1-1.4,0c-0.4,0-0.9-0.1-1.3-0.2c-0.2,0-0.3-0.1-0.4-0.2c0,0-0.1,0-0.1-0.1
		c-0.2-0.2-0.2-0.4-0.1-0.6c0.1-0.2,0.3-0.4,0.5-0.5c0.5-0.2,0.9-0.5,1.4-0.7c0.2-0.1,0.4-0.2,0.6-0.3C17,14.3,17.1,14.3,17.1,14.2z
		 M23.7,5.9c0.5,0,1-0.4,1-1c0-0.6-0.5-1-1-1c-0.5,0-1,0.4-1,1C22.7,5.4,23.1,5.8,23.7,5.9z"/>
	<path class="st0" d="M4.3,26.8c-0.1,0-0.1-0.1-0.1-0.1c-0.5-0.3-1-0.7-1.5-1c-0.4-0.3-0.8-0.6-1.2-1c-0.1-0.1-0.1-0.1-0.2-0.2
		c0,0-0.1-0.1-0.1-0.1c-0.2-0.2-0.3-0.4-0.5-0.6c0-0.1,0-0.1-0.1-0.2c0-0.2,0-0.3,0.2-0.4c0.1-0.1,0.3-0.1,0.4-0.1
		c0.2,0,0.3,0,0.5,0c0.4,0,0.8,0,1.1,0c0.3,0,0.7,0,1,0c0.1,0,0.2,0,0.4,0c0.2,0,0.4,0,0.6,0c0.4,0,0.9-0.1,1.3-0.2
		c0.5-0.2,0.9-0.6,1-1.1c0.1-0.4,0.3-0.8,0.4-1.2c0.1-0.2,0.2-0.5,0.4-0.7c0.3-0.4,0.7-0.6,1.2-0.7c0.5-0.1,1,0,1.5,0.2
		c0.7,0.3,1.4,0.7,2.1,1c0.1,0,0.1,0.1,0.1,0.2c0,0.2,0,0.3,0,0.5c0,0.4,0,0.9,0,1.3c0,0.5-0.1,0.9-0.2,1.4
		c-0.1,0.6-0.3,1.2-0.6,1.7c-0.2,0.4-0.5,0.8-0.8,1.2c-0.7,0.7-1.5,1.2-2.4,1.5c-0.6,0.2-1.2,0.4-1.8,0.4c-0.3,0-0.6,0.1-0.9,0.1
		c-0.3,0-0.6,0-1,0c-0.3,0-0.5,0-0.8-0.1c-0.3,0-0.6-0.1-0.9-0.2c-0.3-0.1-0.6-0.2-0.9-0.3c-0.1-0.1-0.2-0.1-0.3-0.2
		c-0.2-0.2-0.1-0.3,0-0.5c0.1-0.1,0.3-0.2,0.4-0.2c0.5-0.1,0.9-0.2,1.4-0.3C4.2,26.9,4.3,26.9,4.3,26.8z M10,22.4
		c0.3,0,0.7-0.2,0.7-0.7c0-0.4-0.3-0.6-0.7-0.6c-0.4,0-0.7,0.3-0.7,0.7C9.3,22.2,9.7,22.4,10,22.4z"/>
	<path class="st0" d="M19.3,25.4c0,0-0.1-0.1-0.1-0.1c-0.4-0.4-0.8-0.7-1.2-1.1c-0.3-0.3-0.7-0.7-0.9-1c-0.1-0.1-0.1-0.2-0.2-0.3
		c0-0.1-0.1-0.2-0.1-0.3c0-0.1,0.1-0.2,0.2-0.2c0.1,0,0.1-0.1,0.2,0c0.2,0,0.3,0,0.5,0c0.2,0,0.3,0,0.5,0.1c0.2,0,0.3,0,0.5,0.1
		c0.2,0,0.3,0,0.5,0.1c0.3,0,0.5,0.1,0.8,0.1c0.4,0,0.8,0.1,1.1,0c0.4-0.1,0.7-0.4,0.9-0.7c0.2-0.3,0.3-0.6,0.5-0.9
		c0.1-0.1,0.2-0.3,0.3-0.4c0.1-0.1,0.1-0.1,0.2-0.2c0.3-0.2,0.7-0.3,1-0.2c0.4,0,0.7,0.2,1,0.4c0.4,0.3,0.9,0.6,1.3,0.9
		c0.1,0.1,0.1,0.1,0.1,0.2c0,1-0.2,1.9-0.6,2.8c-0.6,1.3-1.5,2.1-2.8,2.5c-0.4,0.1-0.7,0.2-1.1,0.2c-0.4,0.1-0.8,0.1-1.3,0
		c-0.7,0-1.4-0.2-2-0.4c-0.3-0.1-0.5-0.2-0.8-0.4c-0.1-0.1-0.2-0.1-0.3-0.2c-0.2-0.2-0.1-0.3,0.1-0.4c0.1-0.1,0.2-0.1,0.4-0.1
		c0.2,0,0.4,0,0.6-0.1C18.9,25.4,19,25.4,19.3,25.4C19.2,25.4,19.2,25.4,19.3,25.4C19.3,25.4,19.3,25.4,19.3,25.4z M24.7,22
		c0-0.3-0.2-0.5-0.5-0.5c-0.2,0-0.5,0.2-0.5,0.5c0,0.3,0.2,0.5,0.5,0.5C24.5,22.6,24.7,22.3,24.7,22z"/>
</g>
</svg>
