<?xml version="1.0" encoding="utf-8"?>
<!-- Generator: Adobe Illustrator 25.4.1, SVG Export Plug-In . SVG Version: 6.00 Build 0)  -->
<svg version="1.1" id="Layer_1" xmlns="http://www.w3.org/2000/svg" xmlns:xlink="http://www.w3.org/1999/xlink" x="0px" y="0px"
	 viewBox="0 0 145 42" style="enable-background:new 0 0 145 42;" xml:space="preserve">
<style type="text/css">
	.st0{fill:#FFFFFF;}
	.st1{fill:#FF9900;}
</style>
<path class="st0" d="M10.6,35.5c-2.5,0-4.6-0.6-6.3-1.8c-1.6-1.2-2.5-2.9-2.7-5.2h7.1c0.1,1.2,0.6,1.8,1.6,1.8
	c0.4,0,0.7-0.1,0.9-0.2c0.3-0.2,0.4-0.4,0.4-0.8c0-0.5-0.3-0.9-0.8-1.2c-0.5-0.3-1.4-0.7-2.5-1.1c-1.4-0.5-2.5-0.9-3.4-1.4
	c-0.9-0.5-1.6-1.1-2.3-2c-0.6-0.9-0.9-2-0.9-3.4c0-1.4,0.3-2.5,1-3.5c0.7-1,1.7-1.7,2.9-2.2c1.2-0.5,2.6-0.7,4.2-0.7
	c2.6,0,4.6,0.6,6.2,1.8c1.5,1.2,2.3,2.9,2.4,5.1h-7.1c0-0.6-0.2-1-0.4-1.3c-0.3-0.3-0.6-0.4-1-0.4c-0.3,0-0.5,0.1-0.7,0.3
	c-0.2,0.2-0.3,0.4-0.3,0.8c0,0.5,0.3,0.9,0.8,1.2c0.5,0.3,1.4,0.7,2.5,1.1c1.3,0.5,2.4,1,3.3,1.4c0.9,0.5,1.6,1.1,2.3,1.9
	c0.6,0.8,1,1.8,1,3.1c0,1.3-0.3,2.5-1,3.5c-0.6,1-1.6,1.8-2.8,2.4C13.7,35.2,12.2,35.5,10.6,35.5z M46.6,18.5l-4,16.9h-7.5l-2-9.5
	l-2.2,9.5h-7.5l-4-16.9H26l1.4,10.3l2.2-10.3h7.1L39,28.8l1.4-10.4H46.6z M51.3,17.1c-1.2,0-2.1-0.3-2.8-0.9c-0.7-0.6-1-1.4-1-2.3
	c0-1,0.3-1.7,1-2.4c0.7-0.6,1.6-1,2.8-1c1.1,0,2.1,0.3,2.8,1c0.7,0.6,1,1.4,1,2.4c0,0.9-0.3,1.7-1,2.3
	C53.4,16.8,52.5,17.1,51.3,17.1z M54.6,18.5v16.9H48V18.5H54.6z M67.3,17.3c-0.4,0-0.6-0.1-0.7-0.1c-0.5,0-0.9,0.1-1.1,0.3
	c-0.3,0.2-0.4,0.5-0.5,1h2.4V24h-2.5v11.3h-6.6V24h-1.8v-5.5h1.8c0-2.2,0.7-3.9,2.1-5.1c1.4-1.2,3.2-1.8,5.7-1.8
	c0.3,0,0.7,0,1.4,0.1V17.3z M79.6,29.7v5.7h-2.5c-4.6,0-6.9-2.3-6.9-6.9V24h-2.1v-5.5h2.1v-4.1h6.6v4.1h2.8V24h-2.8v4.5
	c0,0.4,0.1,0.7,0.3,0.9c0.2,0.2,0.5,0.3,1,0.3H79.6z M88.8,20.8c0.4-0.8,1-1.4,1.8-1.8c0.8-0.5,1.7-0.7,2.8-0.7c1.3,0,2.5,0.3,3.6,1
	c1.1,0.7,1.9,1.7,2.5,3c0.6,1.3,0.9,2.8,0.9,4.6s-0.3,3.3-0.9,4.6c-0.6,1.3-1.4,2.3-2.5,3c-1.1,0.7-2.2,1-3.6,1
	c-1.1,0-2-0.2-2.8-0.7c-0.8-0.5-1.4-1.1-1.8-1.9v2.3h-6.6V13.2h6.6V20.8z M93.6,26.9c0-0.9-0.2-1.6-0.7-2.1c-0.5-0.5-1-0.7-1.8-0.7
	c-0.7,0-1.3,0.2-1.8,0.7c-0.5,0.5-0.7,1.2-0.7,2.1s0.2,1.6,0.7,2.1c0.5,0.5,1,0.7,1.8,0.7c0.7,0,1.3-0.2,1.8-0.7
	C93.4,28.5,93.6,27.8,93.6,26.9z M109.1,18.5v16.9h-6.6V18.5H109.1z M118.7,21.6c0.7-1,1.5-1.8,2.5-2.3c1-0.6,2-0.9,3-0.9v7.1h-1.9
	c-1.3,0-2.2,0.2-2.8,0.7c-0.6,0.4-0.9,1.2-0.9,2.3v6.9h-6.6V18.5h6.6V21.6z M125.1,26.9c0-1.8,0.3-3.3,0.9-4.6
	c0.6-1.3,1.5-2.3,2.5-3c1.1-0.7,2.2-1,3.6-1c1.1,0,2,0.2,2.8,0.7c0.8,0.4,1.4,1,1.8,1.8v-7.6h6.6v22.1h-6.6V33
	c-0.4,0.8-1,1.4-1.8,1.9c-0.8,0.4-1.7,0.7-2.8,0.7c-1.3,0-2.5-0.3-3.6-1c-1.1-0.7-1.9-1.7-2.5-3C125.4,30.2,125.1,28.7,125.1,26.9z
	 M136.8,26.9c0-0.9-0.2-1.6-0.7-2.1c-0.5-0.5-1-0.7-1.8-0.7c-0.7,0-1.3,0.2-1.8,0.7c-0.5,0.5-0.7,1.2-0.7,2.1s0.2,1.6,0.7,2.1
	c0.5,0.5,1,0.7,1.8,0.7c0.7,0,1.3-0.2,1.8-0.7C136.5,28.5,136.8,27.8,136.8,26.9z"/>
<path class="st1" d="M100.7,12.9c0-0.1-0.1-0.1-0.1-0.2c-0.7-0.9-1.3-1.7-1.9-2.6C98.3,9.5,98,9,97.7,8.4c-0.1-0.3-0.2-0.5-0.3-0.8
	c0-0.1,0-0.3,0-0.4c0.1-0.2,0.2-0.4,0.5-0.4c0.2,0,0.4,0,0.6,0.1c1.3,0.4,2.6,0.9,3.8,1.3c0.2,0.1,0.4,0.2,0.7,0.2
	c0.4,0.1,0.8,0.2,1.2,0.3c0.5,0.1,0.9,0,1.4-0.1c0.4-0.1,0.8-0.4,1.1-0.7c0.4-0.5,0.8-0.9,1.2-1.4c0.4-0.5,0.9-0.8,1.6-0.9
	c0.5-0.1,1.1,0,1.6,0.2c0.5,0.2,1,0.5,1.4,0.9c0.6,0.6,1.2,1.2,1.9,1.8c0.1,0.1,0.2,0.2,0.3,0.3c0,0,0,0.1,0,0.1
	c-0.1,0.4-0.2,0.8-0.4,1.3c-0.4,1.1-0.8,2.1-1.5,3c-0.5,0.8-1.1,1.4-1.9,2c-0.8,0.6-1.7,1-2.7,1.3c-0.4,0.1-0.7,0.2-1.1,0.2
	c-0.3,0-0.5,0-0.8,0.1c-0.1,0-0.2,0-0.4,0c-0.3,0-0.6,0-1,0c-0.5,0-1-0.1-1.5-0.2c-0.9-0.2-1.8-0.5-2.7-0.8c-0.5-0.2-1-0.4-1.5-0.7
	c-0.5-0.3-0.9-0.6-1.3-1c-0.1-0.1-0.2-0.3-0.3-0.5c0-0.2,0-0.3,0.2-0.4c0.1-0.1,0.3-0.1,0.4-0.1c0.2,0,0.4,0,0.6,0
	c0.2,0,0.3,0,0.5,0.1c0.2,0,0.4,0,0.6,0.1c0.2,0,0.3,0,0.5,0.1c0.1,0,0.1,0,0.2,0C100.6,12.9,100.6,12.9,100.7,12.9z M110.3,8.2
	c-0.5,0-0.9,0.4-0.9,0.8c0,0.4,0.3,0.9,0.9,0.9c0.5,0,0.9-0.4,0.9-0.9C111.1,8.6,110.7,8.2,110.3,8.2z"/>
</svg>
